# xmcd
#
# Track frame offsets:
#	150
#	12031
#	27347
#	44137
#	63072
#	75909
#	86931
#	103107
#	115043
#	128467
#	144837
#	162254
#	175571
#	191965
#
# Disc length: 2745 seconds
#
# Revision: 1
# Processed by: cddbd v1.5.2PL0 Copyright (c) Steve Scherf et al.
# Submitted via: audiograbber 1.83.01
#
DISCID=a90ab70e
DTITLE=Original Urtyp-Musikanten - Guter Tipp: Urtyp!
DYEAR=2007
DGENRE=Blasmusik
TTITLE0=Guter Tipp: Urtyp!
TTITLE1=Sudhaus-Polka
TTITLE2=Leuchtende Trompete
TTITLE3=Angenehme Ferien
TTITLE4=Tenortornado
TTITLE5=Leichtes Leben
TTITLE6=Singende Posaune
TTITLE7=Tatranská Polka
TTITLE8=Vier Freunde
TTITLE9=Esgalopp
TTITLE10=Südböhmische Teiche
TTITLE11=Brummgalopp
TTITLE12=Erwachen
TTITLE13=Unser Bayern, Unser Allgäu
EXTD=
EXTT0=
EXTT1=
EXTT2=
EXTT3=
EXTT4=
EXTT5=
EXTT6=
EXTT7=
EXTT8=
EXTT9=
EXTT10=
EXTT11=
EXTT12=
EXTT13=
PLAYORDER=
